<svg xmlns="http://www.w3.org/2000/svg" xmlns:xlink="http://www.w3.org/1999/xlink" width="195" height="150" viewBox="0 0 195 150">
  <defs>
    <clipPath id="clip-path">
      <rect id="Rectangle_183320" data-name="Rectangle 183320" width="195" height="150" transform="translate(330 8070)"/>
    </clipPath>
  </defs>
  <g id="Group_1172509" data-name="Group 1172509" transform="translate(3612 -2717)">
    <g id="Mask_Group_1064321" data-name="Mask Group 1064321" transform="translate(-3942 -5353)" clip-path="url(#clip-path)">
      <g id="Group_345" data-name="Group 345" transform="translate(353.013 8085.99)" style="mix-blend-mode: luminosity;isolation: isolate">
        <g id="Group_189026" data-name="Group 189026" transform="translate(0 0)" style="mix-blend-mode: luminosity;isolation: isolate">
          <g id="Group_64838" data-name="Group 64838" transform="translate(31.948)">
            <path id="Path_45214" data-name="Path 45214" d="M264.793,191.3l-12.7,12.511a2.04,2.04,0,0,0-.453,2.24,2.078,2.078,0,0,0,1.918,1.271h24.536a15.874,15.874,0,0,1-15.956,15.79H219.782L208.88,233.9a2.04,2.04,0,0,0-.45,2.24,2.078,2.078,0,0,0,1.919,1.269h55.909a26.382,26.382,0,0,0,26.519-26.243V191.239Z" transform="translate(-208.271 -191.239)" fill="#fbb03b"/>
            <path id="Path_45215" data-name="Path 45215" d="M241.867,191.5a8.141,8.141,0,0,0-7.753,2.392,2.008,2.008,0,0,1-2.913,0,8.153,8.153,0,0,0-8.9-2.034,7.98,7.98,0,0,0,.026,14.929,8.153,8.153,0,0,0,8.9-2.064,2.006,2.006,0,0,1,2.88,0,8.157,8.157,0,0,0,9.265,1.892,7.987,7.987,0,0,0-1.493-15.124Z" transform="translate(-208.163 -191.241)" fill="#fbb03b"/>
          </g>
          <path id="Path_45216" data-name="Path 45216" d="M198.087,278.456h-2.981V264.514h-5.634v3.355l-11.067,3.112a13.4,13.4,0,0,0-1.674,6.345,7.02,7.02,0,0,0,1.736,4.93,6.651,6.651,0,0,0,5.167,1.9,10.994,10.994,0,0,0,5.84-2.1v2.868h8.615l.411-.611v-5.254Zm-8.615-1.537a12.748,12.748,0,0,1-4.982,1.132q-2.656,0-2.656-1.9a8.979,8.979,0,0,1,.123-1.415l7.514-2.1Z" transform="translate(-176.725 -191.089)" fill="#666"/>
          <path id="Path_45217" data-name="Path 45217" d="M213.027,278.891v5.618l-.411.407H212.2a5.7,5.7,0,0,1-1.594-.2,4.23,4.23,0,0,1-1.43-.788,14.413,14.413,0,0,1-1.123-.971q-.389-.385-1.247-1.313l-2.041,3.273h-6.942L197,284.1v-5.089l.823-.566h5.636V268.267h5.716V277.6a5.368,5.368,0,0,0,3.184.849h.247Z" transform="translate(-176.472 -191.078)" fill="#666"/>
          <path id="Path_45218" data-name="Path 45218" d="M212.434,278.431h7.922a.727.727,0,0,1,.62.2.71.71,0,0,1,.2.613v4.849a.71.71,0,0,1-.2.613.727.727,0,0,1-.62.2h-7.921a.727.727,0,0,1-.62-.2.71.71,0,0,1-.2-.613v-4.849a.71.71,0,0,1,.2-.613A.727.727,0,0,1,212.434,278.431Z" transform="translate(-176.288 -191.064)" fill="#666"/>
          <path id="Path_45219" data-name="Path 45219" d="M220.257,278.431h7.921a.727.727,0,0,1,.62.2.71.71,0,0,1,.2.613v4.849a.71.71,0,0,1-.2.613.727.727,0,0,1-.62.2h-7.922a.727.727,0,0,1-.62-.2.71.71,0,0,1-.2-.613v-4.849a.71.71,0,0,1,.2-.613A.727.727,0,0,1,220.257,278.431Z" transform="translate(-176.189 -191.064)" fill="#666"/>
          <path id="Path_45220" data-name="Path 45220" d="M228.085,278.432H236a.727.727,0,0,1,.62.2.71.71,0,0,1,.2.613v4.849a.71.71,0,0,1-.2.613.727.727,0,0,1-.62.2h-7.924a.727.727,0,0,1-.62-.2.71.71,0,0,1-.2-.613v-4.849a.71.71,0,0,1,.206-.618.727.727,0,0,1,.627-.2Z" transform="translate(-176.096 -191.065)" fill="#666"/>
          <path id="Path_45221" data-name="Path 45221" d="M235.9,278.431h7.924a.727.727,0,0,1,.62.2.711.711,0,0,1,.2.613v4.849a.71.71,0,0,1-.2.613.727.727,0,0,1-.62.2H235.9a.727.727,0,0,1-.62-.2.71.71,0,0,1-.2-.613v-4.849a.71.71,0,0,1,.2-.613A.727.727,0,0,1,235.9,278.431Z" transform="translate(-175.991 -191.064)" fill="#666"/>
          <path id="Path_45222" data-name="Path 45222" d="M243.727,278.431h7.924a.727.727,0,0,1,.62.2.71.71,0,0,1,.2.613v4.849a.71.71,0,0,1-.2.613.727.727,0,0,1-.62.2h-7.924a.727.727,0,0,1-.62-.2.71.71,0,0,1-.2-.613v-4.849a.71.71,0,0,1,.2-.613A.727.727,0,0,1,243.727,278.431Z" transform="translate(-175.889 -191.064)" fill="#666"/>
          <path id="Path_45223" data-name="Path 45223" d="M286.987,278.9v5.618l-.412.407h-.411a4.59,4.59,0,0,1-2.633-.708,14.409,14.409,0,0,1-2.431-2.239l-1.919,2.95a20.153,20.153,0,0,1-9.923-2.911l-2.166,2.911a11.327,11.327,0,0,1-7.1-2.669l-.368,2.669h-8.086l-.411-.407V278.86l.411-.407h3.39l1.306-9.771h5.6l-1.185,8.607a11.739,11.739,0,0,0,4.82,1.132l1.183-9.738h5.515l-1.028,8.889a24.908,24.908,0,0,0,6.329.89q-.734-5.657-1.635-10.426l5.636-1.221q1.028,5.415,1.674,10.789a5.254,5.254,0,0,0,3.184.849h.245Z" transform="translate(-175.787 -191.083)" fill="#666"/>
          <path id="Path_45224" data-name="Path 45224" d="M309.947,278.9v5.618l-.411.407h-.411a4.687,4.687,0,0,1-2.491-.627,11.577,11.577,0,0,1-2.244-1.919l-3.635,3.556-8.983-3.8a7.625,7.625,0,0,1-2.45,2.2,6.809,6.809,0,0,1-3.022.586h-.164l-.411-.525v-5.136l.411-.814h.617a2.325,2.325,0,0,0,1.734-.989,33.3,33.3,0,0,0,2.468-3.664,21.842,21.842,0,0,1,4.065-4.971,6.81,6.81,0,0,1,4.554-1.777,5.658,5.658,0,0,1,4.717,2.605,10.506,10.506,0,0,1,1.9,6.363,10.226,10.226,0,0,1-.123,1.535,5.15,5.15,0,0,0,3.225.89h.245Zm-11.6-5.455a2.28,2.28,0,0,0-1.693.89,18.329,18.329,0,0,0-2.057,3.233l5.965,2.546a8.9,8.9,0,0,0,.531-2.99,4.139,4.139,0,0,0-.823-2.646,2.4,2.4,0,0,0-1.927-1.032Z" transform="translate(-175.345 -191.089)" fill="#666"/>
          <path id="Path_45225" data-name="Path 45225" d="M314.15,267.055h5.716v17.862H309.25l-.823-.814v-5.089l.823-.566h4.9Z" transform="translate(-175.059 -191.083)" fill="#666"/>
          <g id="Group_64839" data-name="Group 64839" transform="translate(0.009 106.052)">
            <path id="Path_45226" data-name="Path 45226" d="M185.72,299.665h-3.17v8.881H179.9v-8.881h-3.17v-2.32h8.991Z" transform="translate(-176.729 -297.07)" fill="#666"/>
            <path id="Path_45227" data-name="Path 45227" d="M199.283,305.936h-3.748l-.823,2.608h-2.555l3.736-11.2h3.25l3.8,11.2h-2.814Zm-.712-2.16-1.2-3.664-1.164,3.664Z" transform="translate(-176.533 -297.067)" fill="#666"/>
            <path id="Path_45228" data-name="Path 45228" d="M222.03,297.345v11.2h-2.658v-4.4a17.019,17.019,0,0,1,.146-2.4h-.146a10.01,10.01,0,0,1-.745,2.176l-1.487,3.328h-2.022l-1.506-3.322a12.534,12.534,0,0,1-.712-2.176h-.146a17.03,17.03,0,0,1,.146,2.4v4.4h-2.427v-11.2h2.621l3.33,7.426,3.106-7.426Z" transform="translate(-176.301 -297.07)" fill="#666"/>
            <path id="Path_45229" data-name="Path 45229" d="M234.58,301.724l.193.079a8.869,8.869,0,0,1,2.9,1.628,2.833,2.833,0,0,1,.8,2.1,5.228,5.228,0,0,1-.6,2.337,4.839,4.839,0,0,1-1.674.68,9.581,9.581,0,0,1-2.191.249,11.277,11.277,0,0,1-3.88-.562v-2.321l.13-.112a13.174,13.174,0,0,0,3.995.641,7.324,7.324,0,0,0,1.633-.161,2.3,2.3,0,0,0,.016-.32.974.974,0,0,0-.43-.792,7.523,7.523,0,0,0-1.689-.814l-.2-.079a7.2,7.2,0,0,1-2.781-1.665,3.457,3.457,0,0,1-.743-2.337,4.118,4.118,0,0,1,.6-2.223,7.071,7.071,0,0,1,3.908-.961,9.089,9.089,0,0,1,3.363.544v2.321l-.146.112a11.282,11.282,0,0,0-3.38-.625,6.229,6.229,0,0,0-1.73.224,1.98,1.98,0,0,0-.033.3,1.215,1.215,0,0,0,.372.936,5.5,5.5,0,0,0,1.557.82Z" transform="translate(-176.058 -297.081)" fill="#666"/>
            <path id="Path_45230" data-name="Path 45230" d="M256,297.345v11.2h-2.652v-4.448h-4.4v4.448h-2.654v-11.2h2.654v4.434h4.4v-4.434Z" transform="translate(-175.851 -297.07)" fill="#666"/>
            <path id="Path_45231" data-name="Path 45231" d="M267.145,297.345v11.2H264.5v-11.2Z" transform="translate(-175.617 -297.07)" fill="#666"/>
            <path id="Path_45232" data-name="Path 45232" d="M285.242,297.345l-3.9,7.532v3.68h-2.654v-3.776l-3.908-7.426H277.6l2.569,5.073,2.524-5.073Z" transform="translate(-175.488 -297.07)" fill="#666"/>
            <path id="Path_45233" data-name="Path 45233" d="M298.952,305.936H295.2l-.823,2.608h-2.555l3.735-11.2h3.25l3.8,11.2H299.8Zm-.712-2.16-1.2-3.664-1.164,3.664Z" transform="translate(-175.274 -297.067)" fill="#666"/>
            <path id="Path_45234" data-name="Path 45234" d="M319.842,297.345v11.2h-2.654v-4.448h-4.4v4.448h-2.654v-11.2h2.654v4.434h4.4v-4.434Z" transform="translate(-175.043 -297.07)" fill="#666"/>
          </g>
          <path id="Path_45235" data-name="Path 45235" d="M320.562,256.218a3.744,3.744,0,0,0-3.565,1.1.924.924,0,0,1-1.339,0,3.75,3.75,0,0,0-4.094-.943,3.671,3.671,0,0,0,0,6.867,3.75,3.75,0,0,0,4.094-.943.922.922,0,0,1,1.321,0,3.751,3.751,0,0,0,4.261.874,3.673,3.673,0,0,0-.686-6.956Z" transform="translate(-175.051 -191.108)" fill="#fbb03b"/>
          <path id="Path_45236" data-name="Path 45236" d="M279.969,259.048a3.7,3.7,0,0,0-2.655-2.789,3.745,3.745,0,0,0-3.721,1.059.924.924,0,0,1-1.339,0,.185.185,0,0,1-.029-.024,3.788,3.788,0,0,0-.644-.537l-.093-.061a3.594,3.594,0,0,0-.778-.368l-.086-.025c-.095-.029-.187-.065-.284-.085s-.206-.01-.3-.024a3.224,3.224,0,0,0-1.051,0,2.409,2.409,0,0,0-.3.024c-.1.024-.191.057-.284.085l-.086.024a3.553,3.553,0,0,0-.778.368l-.093.061a3.7,3.7,0,0,0-.644.537.185.185,0,0,0-.029.025.924.924,0,0,1-1.339,0,3.75,3.75,0,0,0-4.094-.943,3.671,3.671,0,0,0,0,6.867,3.75,3.75,0,0,0,4.094-.943.922.922,0,0,1,1.321,0,4.02,4.02,0,0,0,.3.269,2.483,2.483,0,0,0,.206.173,3.735,3.735,0,0,0,.477.293c.064.034.125.079.191.11a3.735,3.735,0,0,0,.617.2c.049.012.095.037.144.047a3.741,3.741,0,0,0,.823.092h0a3.746,3.746,0,0,0,.823-.092c.049-.01.095-.035.144-.047a3.756,3.756,0,0,0,.617-.2c.068-.031.126-.075.191-.112a3.751,3.751,0,0,0,.475-.293c.07-.053.13-.116.206-.173a3.852,3.852,0,0,0,.3-.269.922.922,0,0,1,1.321,0,3.751,3.751,0,0,0,4.453.79,3.672,3.672,0,0,0,1.936-4.047Z" transform="translate(-175.687 -191.108)" fill="#fbb03b"/>
          <path id="Path_45237" data-name="Path 45237" d="M189.184,256.218a3.745,3.745,0,0,0-3.567,1.1.924.924,0,0,1-1.339,0,3.75,3.75,0,0,0-4.094-.943,3.671,3.671,0,0,0,0,6.867,3.75,3.75,0,0,0,4.094-.943.922.922,0,0,1,1.321,0,3.751,3.751,0,0,0,4.261.874,3.673,3.673,0,0,0-.686-6.956Z" transform="translate(-176.712 -191.108)" fill="#fbb03b"/>
          <path id="Path_45238" data-name="Path 45238" d="M209.387,288.007a3.746,3.746,0,0,0-3.567,1.1.924.924,0,0,1-1.339,0,3.75,3.75,0,0,0-4.094-.943,3.671,3.671,0,0,0,0,6.867,3.75,3.75,0,0,0,4.094-.943.924.924,0,0,1,1.323,0,3.751,3.751,0,0,0,4.261.873,3.673,3.673,0,0,0-.686-6.956Z" transform="translate(-176.456 -191.042)" fill="#fbb03b"/>
        </g>
      </g>
    </g>
  </g>
</svg>
