<svg xmlns="http://www.w3.org/2000/svg" width="51.656" height="56.961" viewBox="0 0 51.656 56.961">
  <g id="Countries_Served" data-name="Countries Served" transform="translate(-33 -10)">
    <path id="Path_1803781" data-name="Path 1803781" d="M88.686,88.931l-.022,0-1.67.168c-.063.007-.124.01-.186.014l-.461.021a2.253,2.253,0,0,0-1.959,1.345l-.117.269a3.49,3.49,0,0,1-3.2,2.089H79.113a1.878,1.878,0,0,1-1.868-1.693l-.079-.786A2.237,2.237,0,0,0,76.154,88.7a2.094,2.094,0,0,1-.957-1.758v-.788a2.508,2.508,0,0,1,.847-1.879L79.4,81.315a2.33,2.33,0,0,0,.687-2.424,2.4,2.4,0,0,0-2-1.688l-.338-.042a2.618,2.618,0,0,1-1.653-.876,1.908,1.908,0,0,1-.22-2.2l2.2-3.778,0,0A27.211,27.211,0,0,0,63.885,65.87c-.645,0-1.361.041-2.064.1v0l3.149,4.543a3.484,3.484,0,0,1-.1,4.109L64.042,75.7a2.58,2.58,0,0,1-2.371.985l-.935-.119a2.7,2.7,0,0,0-2.667,1.31,2.605,2.605,0,0,1-2.576,1.266l-2.159-.275a2.826,2.826,0,0,0-2.7,1.22,2.423,2.423,0,0,0-.041,2.652l1.427,2.254a2.2,2.2,0,0,0,2.9.763l1.469-.788a4.2,4.2,0,0,1,3.743.137h0l6.79,4.449.784,1.075c.085.118.175.234.27.345l1.784,2.1a1.6,1.6,0,0,1-.244,2.307l-2.7,2.078a3.685,3.685,0,0,0-1.273,1.832l-.9,2.926a2.533,2.533,0,0,1-.471.87l-.877,1.055a4.459,4.459,0,0,0-1,2.389,2.073,2.073,0,0,1-1.262,1.7,1.381,1.381,0,0,1-1.9-1.049l-.826-4.96a3.129,3.129,0,0,0-.6-1.389l-3.025-3.97a4.216,4.216,0,0,1-.709-1.429l-1-3.606A3.089,3.089,0,0,0,50.8,89.672l-.217-.059a3.483,3.483,0,0,1-1.469-.824l-1.862-1.755a4.9,4.9,0,0,1-.879-1.11,3.454,3.454,0,0,0-3.653-1.655l-3.061,1h0a24.871,24.871,0,1,0,49.113,5.514c0-.569-.03-1.193-.085-1.849Z" transform="translate(-5.305 -49.399)" fill="#94c1ff"/>
    <path id="Path_1803782" data-name="Path 1803782" d="M363.336,114.581h0l-4.119-6.512h0a26.5,26.5,0,0,0-4.817-3.9l0,0-2.2,3.778a1.908,1.908,0,0,0,.22,2.2,2.618,2.618,0,0,0,1.653.876l.338.042a2.4,2.4,0,0,1,2,1.688,2.33,2.33,0,0,1-.687,2.424l-3.352,2.964a2.508,2.508,0,0,0-.847,1.879v.788a2.094,2.094,0,0,0,.957,1.758,2.237,2.237,0,0,1,1.012,1.656l.079.785a1.878,1.878,0,0,0,1.868,1.693H357.4a3.49,3.49,0,0,0,3.2-2.089l.117-.269A2.253,2.253,0,0,1,362.669,123l.461-.021c.063,0,.124-.007.186-.014l1.67-.168.022,0A35.992,35.992,0,0,0,363.336,114.581Z" transform="translate(-281.628 -83.263)" fill="#00649e"/>
    <path id="Path_1803783" data-name="Path 1803783" d="M74.786,93.851,73,91.75c-.095-.111-.185-.227-.27-.345l-.784-1.075-6.79-4.449h0a4.2,4.2,0,0,0-3.743-.137l-1.469.788a2.2,2.2,0,0,1-2.9-.763L55.62,83.514a2.423,2.423,0,0,1,.041-2.652,2.826,2.826,0,0,1,2.7-1.22l2.159.275a2.605,2.605,0,0,0,2.576-1.266,2.7,2.7,0,0,1,2.667-1.31l.935.119a2.58,2.58,0,0,0,2.371-.985l.824-1.071a3.484,3.484,0,0,0,.1-4.109l-3.149-4.543v0c-.586.052-1.163.119-1.681.192l-.014,0-7.061,2.12a32,32,0,0,0-4.818,3.11l-5.99,6.941-.008.006a27.824,27.824,0,0,0-2.591,6.929h0l3.061-1A3.454,3.454,0,0,1,51.4,86.7a4.9,4.9,0,0,0,.879,1.11l1.862,1.755a3.483,3.483,0,0,0,1.469.824l.217.059a3.089,3.089,0,0,1,2.165,2.158l1,3.606a4.216,4.216,0,0,0,.709,1.429l3.025,3.97a3.129,3.129,0,0,1,.6,1.389l.826,4.96a1.381,1.381,0,0,0,1.9,1.049,2.073,2.073,0,0,0,1.262-1.7,4.459,4.459,0,0,1,1-2.389l.877-1.055a2.533,2.533,0,0,0,.471-.87l.9-2.926a3.685,3.685,0,0,1,1.273-1.832l2.7-2.078a1.6,1.6,0,0,0,.244-2.307Z" transform="translate(-10.327 -50.177)" fill="#00649e"/>
    <path id="Path_1803786" data-name="Path 1803786" d="M148.4,24.185l-.63-.843a4.683,4.683,0,0,1-.94-3.062,4.446,4.446,0,0,1,8.886,0,4.4,4.4,0,0,1-.255,1.786,4.824,4.824,0,0,1-.686,1.276l-3.5,4.685Z" transform="translate(-100.643 -5.305)" fill="#94c1ff"/>
    <path id="Path_1803787" data-name="Path 1803787" d="M58.381,101.7a4.612,4.612,0,0,1-.939,3.061l-3.5,4.686-2.407-3.221-1.1-1.465a4.691,4.691,0,0,1-.94-3.061,4.5,4.5,0,0,1,4.443-4.28,4.353,4.353,0,0,1,3.584,1.865A4.715,4.715,0,0,1,58.381,101.7Z" transform="translate(-14.579 -77.295)" fill="#94c1ff"/>
    <ellipse id="Ellipse_55711" data-name="Ellipse 55711" cx="2.322" cy="2.323" rx="2.322" ry="2.323" transform="translate(48.165 12.808)" fill="#94c1ff"/>
    <path id="Path_1803788" data-name="Path 1803788" d="M68.912,115.65a2.324,2.324,0,1,1-2.322,2.325A2.324,2.324,0,0,1,68.912,115.65Z" transform="translate(-29.699 -93.413)" fill="#94c1ff"/>
    <path id="Path_1803789" data-name="Path 1803789" d="M229.881,197.367a4.612,4.612,0,0,1-.939,3.061l-3.5,4.686-2.407-3.221-1.1-1.465a4.691,4.691,0,0,1-.94-3.061,4.5,4.5,0,0,1,4.443-4.28,4.353,4.353,0,0,1,3.584,1.865,4.715,4.715,0,0,1,.859,2.415Z" transform="translate(-166.215 -161.881)" fill="#94c1ff"/>
    <path id="Path_1803790" data-name="Path 1803790" d="M240.922,211.75a2.324,2.324,0,1,1-2.322,2.323,2.324,2.324,0,0,1,2.322-2.323Z" transform="translate(-181.786 -178.382)" fill="#94c1ff"/>
    <path id="Path_1803791" data-name="Path 1803791" d="M418.346,129.33a3.717,3.717,0,0,1-.755,2.461l-1.492,1.993-1.325,1.772-2.816-3.765a3.685,3.685,0,0,1,.022-4.518,3.491,3.491,0,0,1,2.794-1.383A3.62,3.62,0,0,1,418.346,129.33Zm-1.822.126a1.867,1.867,0,1,0-1.867,1.867A1.867,1.867,0,0,0,416.524,129.456Z" transform="translate(-334.391 -102.467)" fill="#94c1ff"/>
    <path id="Path_1803792" data-name="Path 1803792" d="M426.827,140.55a1.868,1.868,0,1,1-1.867,1.868A1.868,1.868,0,0,1,426.827,140.55Z" transform="translate(-346.562 -115.429)" fill="#94c1ff"/>
    <g id="Group_1204084" data-name="Group 1204084" transform="translate(33 10)">
      <path id="Path_1803793" data-name="Path 1803793" d="M421.286,134.551a2.335,2.335,0,1,0,2.334,2.335A2.335,2.335,0,0,0,421.286,134.551Zm0,3.4a1.068,1.068,0,1,1,1.068-1.068,1.068,1.068,0,0,1-1.068,1.068Z" transform="translate(-373.793 -119.99)" fill="#344d6b"/>
      <path id="Path_1803794" data-name="Path 1803794" d="M160.945,34.275a3.019,3.019,0,1,0-3.017-3.018A3.019,3.019,0,0,0,160.945,34.275Zm0-4.647a1.629,1.629,0,1,1-1.627,1.629A1.629,1.629,0,0,1,160.945,29.628Z" transform="translate(-143.458 -26.126)" fill="#344d6b"/>
      <path id="Path_1803795" data-name="Path 1803795" d="M238.633,208.79a3.017,3.017,0,1,0-3.018,3.019,3.017,3.017,0,0,0,3.018-3.019Zm-3.017,1.629a1.629,1.629,0,1,1,1.627-1.629,1.629,1.629,0,0,1-1.627,1.629Z" transform="translate(-209.48 -183.099)" fill="#344d6b"/>
      <path id="Path_1803796" data-name="Path 1803796" d="M63.609,115.691a3.019,3.019,0,1,0-3.017-3.018,3.019,3.019,0,0,0,3.017,3.018Zm0-4.647a1.629,1.629,0,1,1-1.627,1.629,1.629,1.629,0,0,1,1.627-1.629Z" transform="translate(-57.396 -98.112)" fill="#344d6b"/>
      <path id="Path_1803797" data-name="Path 1803797" d="M84.648,26.818a4.331,4.331,0,0,0-4.266-4.089,4.2,4.2,0,0,0-2.805,1.082,29,29,0,0,0-8.268-5.565,26.374,26.374,0,0,0-10.73-2.469,27,27,0,0,0-2.848.177,5.013,5.013,0,0,0,.038-1.023,5.141,5.141,0,0,0-10.273,0,5.411,5.411,0,0,0,1.077,3.524l.144.192a34.906,34.906,0,0,0-3.668,2.391,5.078,5.078,0,0,0-3.69-1.606,5.218,5.218,0,0,0-5.136,4.928A5.412,5.412,0,0,0,35.3,27.883l.828,1.108A28.1,28.1,0,0,0,33,41.381a25.58,25.58,0,1,0,51.16,0,36.2,36.2,0,0,0-1.675-9.943l1.269-1.7A4.4,4.4,0,0,0,84.648,26.818ZM46.883,15.02a3.752,3.752,0,0,1,7.5,0,3.913,3.913,0,0,1-.8,2.6l-2.946,3.941-2.941-3.934a4.016,4.016,0,0,1-.808-2.608ZM35.61,24.45a3.752,3.752,0,0,1,7.5,0,3.912,3.912,0,0,1-.8,2.6l-2.947,3.941-2.941-3.934a4.016,4.016,0,0,1-.808-2.608Zm1.45,5.788L38.8,32.568a.695.695,0,0,0,1.113,0l3.5-4.685a5.263,5.263,0,0,0,.446-5.722,33.385,33.385,0,0,1,3.693-2.393l2.519,3.369a.695.695,0,0,0,1.113,0l3.5-4.685a5.566,5.566,0,0,0,.621-1.05c.289-.037.577-.071.862-.1l2.919,4.211A2.78,2.78,0,0,1,59.01,24.8l-.824,1.071a1.891,1.891,0,0,1-1.732.72l-.935-.12a3.388,3.388,0,0,0-3.354,1.647,1.91,1.91,0,0,1-1.889.929l-2.159-.275a3.5,3.5,0,0,0-3.359,1.52,3.116,3.116,0,0,0-.053,3.413l1.426,2.255a2.905,2.905,0,0,0,2.456,1.345,2.87,2.87,0,0,0,1.359-.341l1.469-.788a3.518,3.518,0,0,1,2.73-.043,5.538,5.538,0,0,0,1.076,2.876l3.5,4.686a.695.695,0,0,0,1.113,0l1.777-2.376.226.309c.1.133.2.265.3.39l1.784,2.1a.907.907,0,0,1-.138,1.306l-2.7,2.078a4.347,4.347,0,0,0-1.514,2.179l-.9,2.925a1.822,1.822,0,0,1-.341.631L57.455,54.3a5.134,5.134,0,0,0-1.161,2.762,1.383,1.383,0,0,1-.84,1.134.689.689,0,0,1-.946-.523l-.826-4.959a3.85,3.85,0,0,0-.733-1.7l-3.025-3.971a3.5,3.5,0,0,1-.592-1.193l-1-3.605A3.8,3.8,0,0,0,45.681,39.6l-.217-.059a2.789,2.789,0,0,1-1.174-.658L42.428,37.13a4.208,4.208,0,0,1-.756-.953,4.147,4.147,0,0,0-4.389-1.988.686.686,0,0,0-.08.021l-1.866.607a27.181,27.181,0,0,1,1.723-4.58ZM55.532,35.58a3.752,3.752,0,0,1,7.5,0,3.912,3.912,0,0,1-.8,2.6l-2.946,3.941L56.34,38.188a4.016,4.016,0,0,1-.808-2.608Zm27.239,5.8a24.19,24.19,0,1,1-48.381,0,23.95,23.95,0,0,1,.557-4.975l2.645-.86a2.757,2.757,0,0,1,2.879,1.329,5.6,5.6,0,0,0,1,1.267L43.338,39.9a4.187,4.187,0,0,0,1.761.988l.217.059a2.407,2.407,0,0,1,1.677,1.673l1,3.606a4.887,4.887,0,0,0,.826,1.665l3.025,3.971a2.455,2.455,0,0,1,.467,1.082l.826,4.959a2.076,2.076,0,0,0,2.854,1.576A2.772,2.772,0,0,0,57.676,57.2a3.75,3.75,0,0,1,.848-2.017L59.4,54.13a3.2,3.2,0,0,0,.6-1.11l.9-2.925a2.965,2.965,0,0,1,1.032-1.486l2.7-2.079a2.3,2.3,0,0,0,.351-3.308l-1.784-2.1c-.082-.1-.161-.2-.238-.3l-.481-.66.855-1.143a5.3,5.3,0,0,0,1.077-3.524,5.132,5.132,0,0,0-10.164-.782,4.886,4.886,0,0,0-3.494.247l-1.469.788a1.511,1.511,0,0,1-1.984-.523L45.88,32.966a1.727,1.727,0,0,1,.029-1.891,2.12,2.12,0,0,1,2.033-.92l2.159.274a3.3,3.3,0,0,0,3.263-1.6,2,2,0,0,1,1.98-.973l.935.12a3.287,3.287,0,0,0,3.009-1.251l.824-1.071a4.165,4.165,0,0,0,.124-4.929l-2.453-3.538c.281-.012.549-.019.8-.019a24.973,24.973,0,0,1,10.157,2.345,29.115,29.115,0,0,1,3.091,1.633l-1.867,3.2a2.6,2.6,0,0,0,.3,3,3.311,3.311,0,0,0,2.09,1.109l.339.042a1.706,1.706,0,0,1,1.423,1.2,1.643,1.643,0,0,1-.482,1.7l-3.352,2.964a3.205,3.205,0,0,0-1.081,2.4v.787a2.777,2.777,0,0,0,1.275,2.343,1.534,1.534,0,0,1,.7,1.142l.078.785a2.565,2.565,0,0,0,2.56,2.318H75.77a4.185,4.185,0,0,0,3.831-2.5l.118-.269a1.546,1.546,0,0,1,1.354-.93l.46-.021q.112,0,.224-.016l.979-.1c.022.381.033.745.033,1.085Zm-.149-2.471-1,.1c-.049,0-.1.008-.148.011l-.461.021A2.928,2.928,0,0,0,78.447,40.8l-.118.269a2.8,2.8,0,0,1-2.559,1.673H73.808a1.18,1.18,0,0,1-1.177-1.067l-.079-.785a2.916,2.916,0,0,0-1.326-2.171,1.393,1.393,0,0,1-.639-1.175V36.76A1.814,1.814,0,0,1,71.2,35.4l3.352-2.964a3.036,3.036,0,0,0,.892-3.146,3.1,3.1,0,0,0-2.583-2.175l-.339-.042a1.923,1.923,0,0,1-1.214-.644,1.21,1.21,0,0,1-.143-1.392L73,21.894a25.989,25.989,0,0,1,3.7,3,4.423,4.423,0,0,0-.58,1.923,4.487,4.487,0,0,0,.893,2.924l2.816,3.766a.695.695,0,0,0,1.113,0l.518-.693a38.133,38.133,0,0,1,1.164,6.1Zm.021-10-2.26,3.022-2.255-3.015a3.091,3.091,0,0,1-.624-2.007,2.88,2.88,0,0,1,5.757,0,3.007,3.007,0,0,1-.619,2Z" transform="translate(-33 -10)" fill="#fff"/>
    </g>
  </g>
</svg>
