<svg xmlns="http://www.w3.org/2000/svg" xmlns:xlink="http://www.w3.org/1999/xlink" width="70" height="70" viewBox="0 0 70 70">
  <defs>
    <clipPath id="clip-path">
      <rect id="Rectangle_181909" data-name="Rectangle 181909" width="70" height="70" transform="translate(8371 -9933)" fill="#fff"/>
    </clipPath>
  </defs>
  <g id="Mask_Group_1065017" data-name="Mask Group 1065017" transform="translate(-8371 9933)" clip-path="url(#clip-path)">
    <g id="Group_1159892" data-name="Group 1159892" transform="translate(8371 -9909)">
      <g id="Group_179106" data-name="Group 179106" transform="translate(65.449 0)">
        <g id="Group_179105" data-name="Group 179105">
          <g id="Group_179104" data-name="Group 179104">
            <g id="Group_179101" data-name="Group 179101">
              <g id="Group_179100" data-name="Group 179100">
                <path id="Path_151509" data-name="Path 151509" d="M884.265-313.613v-.3h1.974v.3h-.822v2.346h-.328v-2.346Z" transform="translate(-884.265 313.909)" fill="#242c2b"/>
              </g>
            </g>
            <g id="Group_179103" data-name="Group 179103" transform="translate(2.253)">
              <g id="Group_179102" data-name="Group 179102">
                <path id="Path_151510" data-name="Path 151510" d="M890.245-313.909l.778,2.22.781-2.22h.449v2.643h-.311v-2.2h-.007l-.771,2.2h-.28l-.771-2.2h-.007v2.2H889.8v-2.643Z" transform="translate(-889.796 313.909)" fill="#242c2b"/>
              </g>
            </g>
          </g>
        </g>
      </g>
      <g id="Group_179107" data-name="Group 179107" transform="translate(0 0)">
        <path id="Path_151511" data-name="Path 151511" d="M738.267-301.091a9.8,9.8,0,0,1-.794,4.749,7.167,7.167,0,0,1-6.517,3.984,7.232,7.232,0,0,1-7.332-7.584,7.645,7.645,0,0,1,1.981-5.2,7.021,7.021,0,0,1,5.207-2.311,7.889,7.889,0,0,1,3.957,1.007l0,2.8a5.958,5.958,0,0,0-3.652-1.342,4.8,4.8,0,0,0-4.813,5.142c0,2.984,1.976,5.024,4.685,5.026s4.659-2.007,4.66-5.112l.008-13.973h2.618Z" transform="translate(-723.624 313.909)" fill="#242c2b"/>
        <path id="Path_151512" data-name="Path 151512" d="M762.47-297.858h2.4v2.161c.945-1.8,2.5-2.434,5.024-2.432h.67v2.527h-.4c-3.623,0-5.085,1.641-5.087,5.446l0,6.88-2.618,0Z" transform="translate(-746.638 304.558)" fill="#242c2b"/>
        <path id="Path_151513" data-name="Path 151513" d="M783.793-295.929a7.115,7.115,0,0,1,5.177-2.189,7.183,7.183,0,0,1,5.2,2.194,7.577,7.577,0,0,1,2.159,5.359,7.647,7.647,0,0,1-2.164,5.387,7.181,7.181,0,0,1-5.207,2.189,7.114,7.114,0,0,1-5.174-2.194,7.6,7.6,0,0,1-2.189-5.389A7.529,7.529,0,0,1,783.793-295.929Zm5.17,10.414a4.861,4.861,0,0,0,4.661-5.081,4.834,4.834,0,0,0-4.655-5.056,4.834,4.834,0,0,0-4.661,5.051A4.861,4.861,0,0,0,788.963-285.515Z" transform="translate(-757.979 304.552)" fill="#242c2b"/>
        <path id="Path_151514" data-name="Path 151514" d="M822.856-295.908a7.115,7.115,0,0,1,5.177-2.189,7.183,7.183,0,0,1,5.2,2.194,7.575,7.575,0,0,1,2.158,5.359,7.644,7.644,0,0,1-2.164,5.387,7.18,7.18,0,0,1-5.207,2.189,7.113,7.113,0,0,1-5.174-2.194,7.6,7.6,0,0,1-2.189-5.389A7.529,7.529,0,0,1,822.856-295.908Zm5.17,10.414a4.861,4.861,0,0,0,4.66-5.081,4.833,4.833,0,0,0-4.655-5.056,4.833,4.833,0,0,0-4.661,5.051A4.861,4.861,0,0,0,828.026-285.494Z" transform="translate(-781.126 304.539)" fill="#242c2b"/>
        <path id="Path_151515" data-name="Path 151515" d="M862.515-313.85l-.008,13.973c0,3.105,1.946,5.116,4.655,5.117,2.74,0,4.72-2.007,4.722-5.142a4.71,4.71,0,0,0-4.808-5.026,6.043,6.043,0,0,0-3.684,1.338l0-2.8a7.887,7.887,0,0,1,3.958-1,7.049,7.049,0,0,1,3.926,1.219,7.446,7.446,0,0,1,3.254,6.3,7.209,7.209,0,0,1-7.31,7.576,7.212,7.212,0,0,1-6.543-3.991,9.79,9.79,0,0,1-.788-4.75l.006-12.816Z" transform="translate(-804.372 313.875)" fill="#242c2b"/>
      </g>
    </g>
  </g>
</svg>
