<svg xmlns="http://www.w3.org/2000/svg" xmlns:xlink="http://www.w3.org/1999/xlink" width="195" height="150" viewBox="0 0 195 150">
  <defs>
    <clipPath id="clip-path">
      <rect id="Rectangle_183293" data-name="Rectangle 183293" width="195" height="150" transform="translate(330 8222)"/>
    </clipPath>
  </defs>
  <g id="Group_1172517" data-name="Group 1172517" transform="translate(4346 -2363)">
    <g id="Mask_Group_1064304" data-name="Mask Group 1064304" transform="translate(-4676 -5859)" clip-path="url(#clip-path)" style="mix-blend-mode: luminosity;isolation: isolate">
      <g id="Group_1172425" data-name="Group 1172425" transform="translate(359.732 8264.422)" style="isolation: isolate">
        <path id="Path_1618277" data-name="Path 1618277" d="M551,143.6" transform="translate(-426.298 -129.694)" fill="none" stroke="#000" stroke-miterlimit="10" stroke-width="8"/>
        <g id="Group_1172420" data-name="Group 1172420" transform="translate(0 52.241)">
          <g id="Group_1172419" data-name="Group 1172419" transform="translate(0 0)">
            <path id="Path_1618278" data-name="Path 1618278" d="M227,253.053V243.7h1.848l2.232,6.62q.289.924.462,1.386c.115-.346.269-.847.5-1.5l2.232-6.5h1.655v9.353h-1.193V245.2L232,253.053h-1.116l-2.694-7.967v7.967Z" transform="translate(-227 -243.507)" fill="#ffcb08"/>
            <path id="Path_1618279" data-name="Path 1618279" d="M272.2,253.053V243.7h6.774v1.116h-5.542V247.7h5.2v1.116h-5.2v3.195h5.735v1.116H272.2Z" transform="translate(-254.803 -243.507)" fill="#ffcb08"/>
            <path id="Path_1618280" data-name="Path 1618280" d="M315.3,249.05v-1.116h3.964V251.4a6.254,6.254,0,0,1-1.886,1.078,5.959,5.959,0,0,1-2,.385,5.326,5.326,0,0,1-2.5-.577,3.8,3.8,0,0,1-1.693-1.693,5.328,5.328,0,0,1-.577-2.5,5.6,5.6,0,0,1,.577-2.54,3.712,3.712,0,0,1,1.655-1.771,5.172,5.172,0,0,1,2.463-.577,4.65,4.65,0,0,1,1.847.346,3.2,3.2,0,0,1,1.27.924,3.81,3.81,0,0,1,.693,1.54l-1.116.308a3.355,3.355,0,0,0-.539-1.116,1.981,1.981,0,0,0-.885-.654,3.967,3.967,0,0,0-2.771.038,2.855,2.855,0,0,0-1.578,1.617,4.983,4.983,0,0,0-.346,1.886,4.632,4.632,0,0,0,.423,2.078,2.892,2.892,0,0,0,1.27,1.27,3.494,3.494,0,0,0,1.732.423,4.429,4.429,0,0,0,1.578-.308,3.972,3.972,0,0,0,1.155-.654v-1.732H315.3Z" transform="translate(-278.424 -243.2)" fill="#ffcb08"/>
            <path id="Path_1618281" data-name="Path 1618281" d="M351.9,253.053l3.579-9.353h1.347l3.849,9.353h-1.424l-1.078-2.848h-3.926l-1.039,2.848Zm2.694-3.849h3.195l-.962-2.579a14.248,14.248,0,0,1-.654-1.924,9.3,9.3,0,0,1-.5,1.77Z" transform="translate(-303.828 -243.507)" fill="#ffcb08"/>
            <path id="Path_1618282" data-name="Path 1618282" d="M392.8,249.766l1.155-.115a2.562,2.562,0,0,0,.385,1.155,2.013,2.013,0,0,0,.924.731,3.481,3.481,0,0,0,1.424.269,4.4,4.4,0,0,0,1.27-.192,2.184,2.184,0,0,0,.808-.577,1.208,1.208,0,0,0,.269-.808,1.11,1.11,0,0,0-.269-.77,1.791,1.791,0,0,0-.847-.539,11.381,11.381,0,0,0-1.655-.462,7.65,7.65,0,0,1-1.809-.577,2.522,2.522,0,0,1-1-.885,2.037,2.037,0,0,1-.346-1.155,2.333,2.333,0,0,1,1.578-2.232,4.1,4.1,0,0,1,1.732-.308,4.651,4.651,0,0,1,1.847.346,2.644,2.644,0,0,1,1.232,1,3.121,3.121,0,0,1,.462,1.463l-1.193.077a1.963,1.963,0,0,0-.654-1.347,2.526,2.526,0,0,0-1.617-.462,2.749,2.749,0,0,0-1.655.423,1.221,1.221,0,0,0-.5,1,1.132,1.132,0,0,0,.346.847,4.661,4.661,0,0,0,1.886.654,10.889,10.889,0,0,1,2.078.616,2.8,2.8,0,0,1,1.193.962,2.3,2.3,0,0,1,.385,1.347,2.783,2.783,0,0,1-.423,1.424,3.018,3.018,0,0,1-1.232,1.039,4.606,4.606,0,0,1-1.809.385,4.957,4.957,0,0,1-2.117-.385,2.761,2.761,0,0,1-1.347-1.116A3.882,3.882,0,0,1,392.8,249.766Z" transform="translate(-328.987 -243.262)" fill="#ffcb08"/>
            <path id="Path_1618283" data-name="Path 1618283" d="M434.479,252.991v-8.275H431.4V243.6h7.428v1.116h-3.118v8.275Z" transform="translate(-352.73 -243.446)" fill="#ffcb08"/>
            <path id="Path_1618284" data-name="Path 1618284" d="M469.1,248.165a5.093,5.093,0,0,1,1.27-3.656A4.265,4.265,0,0,1,473.6,243.2a4.461,4.461,0,0,1,2.348.616,4.035,4.035,0,0,1,1.578,1.732,5.823,5.823,0,0,1,.539,2.5,5.378,5.378,0,0,1-.577,2.54,4.042,4.042,0,0,1-1.617,1.693,4.633,4.633,0,0,1-2.271.577,4.393,4.393,0,0,1-2.348-.654,4.035,4.035,0,0,1-1.578-1.732A5.255,5.255,0,0,1,469.1,248.165Zm1.27.038a3.718,3.718,0,0,0,.924,2.656,3,3,0,0,0,2.271.962,3.057,3.057,0,0,0,2.309-1,3.914,3.914,0,0,0,.885-2.81,4.647,4.647,0,0,0-.385-2,2.877,2.877,0,0,0-1.116-1.309,3.065,3.065,0,0,0-1.655-.462,3.3,3.3,0,0,0-2.271.885A4.162,4.162,0,0,0,470.37,248.2Z" transform="translate(-375.92 -243.2)" fill="#ffcb08"/>
            <path id="Path_1618285" data-name="Path 1618285" d="M513.2,253.053V243.7h4.157a4.766,4.766,0,0,1,1.886.269,2.092,2.092,0,0,1,1.039.885,2.553,2.553,0,0,1,.385,1.424,2.454,2.454,0,0,1-.654,1.693,3.348,3.348,0,0,1-2,.885,2.391,2.391,0,0,1,.731.462,8.726,8.726,0,0,1,1.039,1.232l1.616,2.54H519.82l-1.232-1.963a14.788,14.788,0,0,0-.885-1.309,3.03,3.03,0,0,0-.616-.616,1.524,1.524,0,0,0-.577-.231,3.337,3.337,0,0,0-.693-.038h-1.424v4.118Zm1.232-5.234h2.656a4.17,4.17,0,0,0,1.347-.192,1.378,1.378,0,0,0,.731-.577,1.646,1.646,0,0,0,.231-.847,1.265,1.265,0,0,0-.5-1.078,2.374,2.374,0,0,0-1.54-.423h-2.964v3.117Z" transform="translate(-403.047 -243.507)" fill="#ffcb08"/>
            <path id="Path_1618286" data-name="Path 1618286" d="M554.4,253.053V243.7h6.774v1.116h-5.542V247.7h5.2v1.116h-5.2v3.195h5.735v1.116H554.4Z" transform="translate(-428.389 -243.507)" fill="#ffcb08"/>
          </g>
        </g>
        <g id="Group_1172421" data-name="Group 1172421" transform="translate(0.154 17.293)">
          <path id="Path_1618287" data-name="Path 1618287" d="M254.688,183.037H246.76v-15.28a23.442,23.442,0,0,0-.5-6.274,4.2,4.2,0,0,0-1.655-2.194,4.672,4.672,0,0,0-2.733-.808,6.44,6.44,0,0,0-3.695,1.116,5.62,5.62,0,0,0-2.232,3,24.947,24.947,0,0,0-.616,6.889v13.548H227.4V153.093h7.351v4.388a11.966,11.966,0,0,1,9.853-5.08,11.681,11.681,0,0,1,4.811.962,7.531,7.531,0,0,1,3.271,2.425,8.441,8.441,0,0,1,1.539,3.31,23.653,23.653,0,0,1,.423,5.311v18.628Z" transform="translate(-227.4 -152.4)" fill="#231f20"/>
          <path id="Path_1618288" data-name="Path 1618288" d="M338.5,184.205v-4.465a11.371,11.371,0,0,1-4.311,3.772,12.018,12.018,0,0,1-5.619,1.386,11.1,11.1,0,0,1-5.427-1.309,7.58,7.58,0,0,1-3.464-3.733,16.235,16.235,0,0,1-1.078-6.62V154.3h7.928v13.74a40.653,40.653,0,0,0,.424,7.736,4.366,4.366,0,0,0,1.578,2.271,4.966,4.966,0,0,0,2.925.847,6.2,6.2,0,0,0,3.618-1.116,5.467,5.467,0,0,0,2.194-2.771q.577-1.674.577-8.083V154.3h7.929v29.905Z" transform="translate(-283.499 -153.569)" fill="#231f20"/>
          <path id="Path_1618289" data-name="Path 1618289" d="M437.888,183.037H429.96v-15.28a23.441,23.441,0,0,0-.5-6.274,4.2,4.2,0,0,0-1.655-2.194,4.671,4.671,0,0,0-2.733-.808,6.441,6.441,0,0,0-3.695,1.116,5.621,5.621,0,0,0-2.232,3,24.949,24.949,0,0,0-.616,6.889v13.548H410.6V153.093h7.351v4.388a11.967,11.967,0,0,1,9.853-5.08,11.681,11.681,0,0,1,4.811.962,7.531,7.531,0,0,1,3.271,2.425,8.443,8.443,0,0,1,1.539,3.31,23.658,23.658,0,0,1,.423,5.311v18.628Z" transform="translate(-340.09 -152.4)" fill="#231f20"/>
          <path id="Path_1618290" data-name="Path 1618290" d="M521.8,193.548v-4.465a11.368,11.368,0,0,1-4.311,3.772,12.019,12.019,0,0,1-5.619,1.386,11.1,11.1,0,0,1-5.427-1.309,7.579,7.579,0,0,1-3.464-3.733,16.24,16.24,0,0,1-1.078-6.62V171.417l7.929-2.617v8.544a40.642,40.642,0,0,0,.423,7.736,4.367,4.367,0,0,0,1.578,2.271,4.967,4.967,0,0,0,2.925.847,6.2,6.2,0,0,0,3.618-1.116,5.465,5.465,0,0,0,2.194-2.771q.577-1.674.577-8.083v-4.157l7.928-.385v21.861Z" transform="translate(-396.25 -162.488)" fill="#231f20"/>
        </g>
        <path id="Path_1618291" data-name="Path 1618291" d="M551,141.6" transform="translate(-426.298 -128.463)" fill="#231f20" stroke="#000" stroke-miterlimit="10" stroke-width="8"/>
        <path id="Path_1618292" data-name="Path 1618292" d="M509.5,277.5" transform="translate(-400.77 -212.058)" fill="#231f20" stroke="#fcb83f" stroke-miterlimit="10" stroke-width="1"/>
        <g id="Group_1172424" data-name="Group 1172424" transform="translate(101.966 0)">
          <g id="Group_1172423" data-name="Group 1172423" transform="translate(0)">
            <g id="Group_1172422" data-name="Group 1172422">
              <path id="Path_1618293" data-name="Path 1618293" d="M508.084,116.718c-2.463,2.386-5.619,4.542-9.006,5.157a5.579,5.579,0,0,1-3.348-.423,4.546,4.546,0,0,1-1.54-1.27c-1-1.693,0-3.849.962-5.311a12.121,12.121,0,0,1,9.353-5.542c3.887-.269,7.043,1.847,9.584,4.58a25.047,25.047,0,0,1,6.7,16.281.978.978,0,0,0,.962.962c.693,0,2.078.847.5,2a2.967,2.967,0,0,1-.962.385,7.7,7.7,0,0,1-3.5.077,23.6,23.6,0,0,1-4.849-1.5c-3.81-1.5-8.275-2.463-12.316-1.232-1.617.5-4.272,3.233-4.927.346-.192-.847.808-1.809,1.617-2.309,4-2.54,9.776-1.77,13.933-.231,1.155.423,1.655-1.424.5-1.847-4.926-1.809-12.393-2.5-16.7,1.424-3.195,2.925.423,8.352,4.2,5.465,2.81-2.155,6.966-1.54,10.122-.693,2.309.616,4.426,1.693,6.774,2.309,2.386.616,5.388.808,7.467-.77,2.309-1.732.77-5.234-1.886-5.311l.962.962a27.429,27.429,0,0,0-8.583-19.013,13.1,13.1,0,0,0-10.7-3.656c-4.157.462-7.544,3.079-9.93,6.428-2.81,3.926-1.809,9.276,3.541,9.891,4.58.539,9.237-2.694,12.393-5.735a.967.967,0,0,0-1.309-1.424Z" transform="translate(-491.931 -107.468)" fill="#231f20"/>
            </g>
          </g>
          <line id="Line_10325" data-name="Line 10325" x2="0.962" y2="3.618" transform="translate(7.57 15.292)" fill="none" stroke="#231f20" stroke-miterlimit="10" stroke-width="4"/>
        </g>
      </g>
    </g>
  </g>
</svg>
